# xmcd CD database file
#
# Track frame offsets:
#	150
#	21306
#	44391
#	73215
#	97895
#	119740
#	148492
#	154936
#	169947
#	194313
#	213795
#	238485
#
# Disc length: 3453 seconds
#
# Revision: 0
# Processed by: cddbd v1.5.2PL0 Copyright (c) Steve Scherf et al.
# Submitted via: CDex 1.51
#
DISCID=bc0d7b0c
DTITLE=Kneebody - the line
DYEAR=2013
DGENRE=Jazz
TTITLE0=Lowell
TTITLE1=Cha-Cha
TTITLE2=Trite
TTITLE3=Sleeveless
TTITLE4=Still Play
TTITLE5=The Line
TTITLE6=E and E
TTITLE7=Pushed Away
TTITLE8=Work Hard, Play Hard, Towel Hard
TTITLE9=Greenblatt
TTITLE10=What Was
TTITLE11=Ready Set Go
EXTD=YEAR: 2013
EXTT0=
EXTT1=
EXTT2=
EXTT3=
EXTT4=
EXTT5=
EXTT6=
EXTT7=
EXTT8=
EXTT9=
EXTT10=
EXTT11=
PLAYORDER=
